<?xml version="1.0" encoding="utf-8"?>
<!-- Generator: Adobe Illustrator 22.1.0, SVG Export Plug-In . SVG Version: 6.00 Build 0)  -->
<svg version="1.1" width="200px" height="29px" xmlns="http://www.w3.org/2000/svg" xmlns:xlink="http://www.w3.org/1999/xlink" x="0px" y="0px"
	 viewBox="0 0 200.1 29" style="enable-background:new 0 0 200.1 29;" xml:space="preserve">
<style type="text/css">
	.st0{fill:none;}
	.st1{fill:#dc3545;}
</style>
<g id="Clearspace">
	<rect x="-22.9" y="-23.4" class="st0" width="232.9" height="75"/>
</g>
<g id="Logo">
	<g>
		<polygon class="st1" points="83.9,0.6 77.7,20.8 71.5,0.6 68,0.6 61.9,20.6 55.7,0.6 51.4,0.6 59.7,27.5 59.7,27.6 64,27.6 
			64,27.5 69.7,8.9 75.5,27.6 79.8,27.6 88.1,0.6 		"/>
		<path class="st1" d="M174.2,19c0.1-0.6,0.2-1.3,0.2-2c0-5.8-4.7-10.5-10.5-10.5c-5.8,0-10.5,4.7-10.5,10.5s4.7,10.5,10.5,10.5
			c3.4,0,6.5-1.7,8.4-4.2l-3.1-2.2c-1.2,1.6-3.1,2.6-5.3,2.6c-3,0-5.6-2-6.4-4.7L174.2,19z M163.9,10.4c3.1,0,5.6,2.1,6.4,4.9h-12.9
			C158.3,12.4,160.8,10.4,163.9,10.4z"/>
		<path class="st1" d="M113,27.6V16.2c0-3.1,2.5-5.5,5.5-5.5c3.1,0,5.5,2.5,5.5,5.5v11.4h4.1c0-4.1,0-9.1,0-11.4
			c0-5.3-4.3-9.6-9.6-9.6c-5.3,0-9.6,4.3-9.6,9.6c0,2.3,0,7.4,0,11.4H113z"/>
		<path class="st1" d="M96.3,6.6c-5.8,0-10.5,4.7-10.5,10.5c0,5.8,4.7,10.5,10.5,10.5s10.5-4.7,10.5-10.5
			C106.8,11.2,102.1,6.6,96.3,6.6z M96.3,23.6c-3.6,0-6.5-2.9-6.5-6.5c0-3.6,2.9-6.5,6.5-6.5c3.6,0,6.5,2.9,6.5,6.5
			C102.8,20.6,99.9,23.6,96.3,23.6z"/>
		<path class="st1" d="M151.3,0.6h-4.1v8.1c-1.8-1.4-4-2.2-6.4-2.2c-5.8,0-10.5,4.7-10.5,10.5c0,5.8,4.7,10.5,10.5,10.5
			c5.8,0,10.5-4.7,10.5-10.5C151.3,17,151.3,0.6,151.3,0.6z M140.8,23.6c-3.6,0-6.5-2.9-6.5-6.5c0-3.6,2.9-6.5,6.5-6.5
			c3.6,0,6.5,2.9,6.5,6.5C147.3,20.6,144.4,23.6,140.8,23.6z"/>
		<path class="st1" d="M11.5,0.7C5.7,0.7,1,5.4,1,11.2C1,17,5.7,21.7,11.5,21.7c0.4,0,0.7,0,1.1-0.1l-3.7,5.9h4.7
			c2.3-3.7,7.2-11.3,7.2-11.3l0,0c0.8-1.5,1.3-3.2,1.3-5C21.9,5.4,17.2,0.7,11.5,0.7z M11.5,17.7c-3.6,0-6.5-2.9-6.5-6.5
			c0-3.6,2.9-6.5,6.5-6.5c3.6,0,6.5,2.9,6.5,6.5C18,14.8,15.1,17.7,11.5,17.7z"/>
		<path class="st1" d="M43.9,6.6c-2.1,0-4,0.7-5.5,1.8V0.6h-4l0,27h4.1l0-11.5c0.1-3,2.5-5.4,5.5-5.4c3.1,0,5.5,2.5,5.5,5.5v11.4
			h4.1c0-4.1,0-9.1,0-11.4C53.5,10.9,49.2,6.6,43.9,6.6z"/>
		<path class="st1" d="M32,6.8h-3.8l0-6.2h-4c0,6.5,0,16.9,0,19.2h0c0,4.3,3.5,7.7,7.7,7.7c0,0,0.1,0,0.1,0v-4c0,0-0.1,0-0.1,0
			c-2,0-3.7-1.6-3.7-3.7l0-9.2H32V6.8z"/>
		<path class="st1" d="M186.1,6.5c-5.3,0-9.6,4.3-9.6,9.6c0,2.3,0,7.4,0,11.4h4.1V16.1c0-3.1,2.5-5.5,5.5-5.5V6.5z"/>
	</g>
	<g>
		<path class="st1" d="M191.2,1.4c-0.7,0-1.3,0.3-1.3,0.8c0,0.5,0.6,0.7,1.3,0.8c1.1,0.2,2.2,0.5,2.2,1.7c0,1.2-1.1,1.7-2.3,1.7
			c-1.1,0-1.9-0.3-2.4-1.3l0.7-0.4c0.4,0.7,1.1,0.9,1.7,0.9c0.7,0,1.4-0.2,1.4-0.9c0-0.6-0.6-0.8-1.4-0.9c-1.1-0.1-2.1-0.4-2.1-1.6
			c0-1.1,1.1-1.5,2.1-1.5c0.8,0,1.6,0.2,2.1,0.9L192.6,2C192.3,1.6,191.8,1.4,191.2,1.4z"/>
		<path class="st1" d="M197.4,4.6h-0.2L195.3,2v4.2h-0.9V0.7h1l1.8,2.6l1.8-2.6h1v5.5h-0.9V2L197.4,4.6z"/>
	</g>
</g>
</svg>
